<svg viewBoxSize="575" data-root-id="5430467842395" xmlns="http://www.w3.org/2000/svg" xmlns:xlink="http://www.w3.org/1999/xlink" version="1.1" id="ttt_1" x="172.502" y="177.39" viewBox="38.53357696533203 97.15000915527344 443.2264404296875 304.75567626953125" style="position: absolute; height: 158.142px; width: 230px; top: 177.39px; left: 172.502px;" xml:space="preserve" height="158.14236450195312" width="230.00001525878906" preserveAspectRatio="xMinYMin" zoom="1" editorType="buyer" data-layer-role="icon"><circle class="st64" cx="142.08" cy="134.99" r="37.84" style="fill: rgb(252, 72, 56);" name="Layer %{number}" zoom="1" data-layer-id="6170181642395"></circle><circle class="st62" cx="374.01" cy="134.99" r="37.84" style="fill: rgb(7, 42, 73);" name="Layer %{number}" zoom="1" data-layer-id="6857397942395"></circle><path class="st64" d="M244.29,313.62c-0.13-0.12-0.26-0.25-0.38-0.37l0.01-0.01L244.29,313.62z" style="fill: rgb(252, 72, 56);" name="Layer %{number}" zoom="1" data-layer-id="5745674442395"></path><path class="st62" d="M481.76,296.18c0,58.35-47.37,105.71-105.71,105.71c-12.85,0-25.03-2.27-36.4-6.55   c-12.85-4.55-24.49-11.78-34.39-20.88l-0.27-0.13l-8.29-8.3l-52.79-52.78l33.32-33.32l53.59,53.59c2.01,2.41,4.28,4.68,6.69,6.69   c10.3,9.1,23.68,14.58,38.54,14.58c32.38,0,58.61-26.22,58.61-58.61c0-32.24-26.23-58.6-58.61-58.6   c-17.44,0-33.23,7.78-44.02,20.07c-1.13,1.29-2.2,2.63-3.22,4.01c-9.33,9.33-24.46,9.33-33.79,0c-9.33-9.33-9.33-24.46,0-33.79   c0.7-0.7,1.43-1.35,2.19-1.93c0,0,0-0.02,0.01-0.01c19.36-21.77,47.46-35.46,78.83-35.46   C434.39,190.47,481.76,237.98,481.76,296.18z" style="fill: rgb(7, 42, 73);" name="Layer %{number}" zoom="1" data-layer-id="2773944242395"></path><path class="st65" d="M332.03,257.65c-0.9,1.43-1.98,2.77-3.22,4.01C329.83,260.28,330.9,258.94,332.03,257.65z" style="fill: rgb(5, 27, 52);" name="Layer %{number}" zoom="1" data-layer-id="4865619742395"></path><path class="st64" d="M277.23,313.25c-9.08,9.08-23.72,9.2-32.94,0.37l-0.37-0.38l-0.41-0.41L185.9,255.1l-0.53-0.53   c-10.57-10.57-25.02-16.99-41.08-16.99c-34.79,0-62.36,30.37-58.21,65.7c2.94,24.88,22.35,45.89,46.97,50.44   c23.15,4.42,44.96-5.08,57.8-21.94l0.13,0.13c9.2-9.21,24.12-9.21,33.33,0c9.2,9.2,9.2,24.12,0,33.32   c-22.22,25.82-56.47,40.68-94.07,35.73c-46.97-6.02-84.97-44.29-90.86-91.13c-8.03-64.23,42.15-119.36,104.91-119.36   c16.99,0,33.18,4.02,47.37,11.38c8.69,4.28,16.59,9.77,23.68,16.19l8.03,8.03l53.86,53.86   C286.43,289.13,286.43,304.04,277.23,313.25z" style="fill: rgb(252, 72, 56);" name="Layer %{number}" zoom="1" data-layer-id="7269353942395"></path><path class="st64" d="M244.29,313.62c-0.13-0.12-0.26-0.25-0.38-0.37c-0.14-0.14-0.27-0.28-0.4-0.42l0.41,0.41L244.29,313.62z" style="fill: rgb(252, 72, 56);" name="Layer %{number}" zoom="1" data-layer-id="7706904242395"></path></svg>